<svg width="60" height="60" viewBox="0 0 60 60" fill="none" xmlns="http://www.w3.org/2000/svg">
<g clip-path="url(#clip0_120_17411)">
<path d="M51.05 8.96954H58.2422" stroke="#FD663C" stroke-width="3" stroke-miterlimit="10" stroke-linecap="round" stroke-linejoin="round"/>
<path d="M51.05 8.96953L56.1356 3.87012" stroke="#FD663C" stroke-width="3" stroke-miterlimit="10" stroke-linecap="round" stroke-linejoin="round"/>
<path d="M51.05 8.96953V1.75781" stroke="#FD663C" stroke-width="3" stroke-miterlimit="10" stroke-linecap="round" stroke-linejoin="round"/>
<path d="M51.0501 8.96953L45.9645 3.87012" stroke="#FD663C" stroke-width="3" stroke-miterlimit="10" stroke-linecap="round" stroke-linejoin="round"/>
<path d="M51.0501 8.96954H43.858" stroke="#FD663C" stroke-width="3" stroke-miterlimit="10" stroke-linecap="round" stroke-linejoin="round"/>
<path d="M51.0501 8.96954L45.9645 14.069" stroke="#FD663C" stroke-width="3" stroke-miterlimit="10" stroke-linecap="round" stroke-linejoin="round"/>
<path d="M51.05 8.96954V16.1811" stroke="#FD663C" stroke-width="3" stroke-miterlimit="10" stroke-linecap="round" stroke-linejoin="round"/>
<path d="M51.05 8.96954L56.1356 14.069" stroke="#FD663C" stroke-width="3" stroke-miterlimit="10" stroke-linecap="round" stroke-linejoin="round"/>
<path d="M21.9688 58.2422H1.75781V16.7531H26.7118V36.0164" stroke="#FD663C" stroke-width="3" stroke-miterlimit="10" stroke-linecap="round" stroke-linejoin="round"/>
<path d="M40.9729 36.0164H20.6735V58.2422H40.9729V36.0164Z" stroke="#FD663C" stroke-width="3" stroke-miterlimit="10" stroke-linecap="round" stroke-linejoin="round"/>
<path d="M40.9729 58.2422H58.2422V29.0032H37.6017V36.0164" stroke="#FD663C" stroke-width="3" stroke-miterlimit="10" stroke-linecap="round" stroke-linejoin="round"/>
<circle cx="30.1147" cy="7.27838" r="1.75781" fill="#FD663C"/>
<circle cx="24.7927" cy="10.1148" r="1.75781" fill="#FD663C"/>
<circle cx="37.1876" cy="15.6168" r="1.75781" fill="#FD663C"/>
<circle cx="35.6387" cy="9.74402" r="1.75781" fill="#FD663C"/>
<circle cx="33.5114" cy="20.7173" r="1.75781" fill="#FD663C"/>
<path d="M8.52087 23.9836H19.6216" stroke="#FD663C" stroke-width="3" stroke-miterlimit="10" stroke-linecap="round" stroke-linejoin="round"/>
<path d="M8.52087 30.5781H19.6216" stroke="#FD663C" stroke-width="3" stroke-miterlimit="10" stroke-linecap="round" stroke-linejoin="round"/>
<path d="M8.52087 37.1726H20.6736" stroke="#FD663C" stroke-width="3" stroke-miterlimit="10" stroke-linecap="round" stroke-linejoin="round"/>
<path d="M8.52087 43.7671H20.6736" stroke="#FD663C" stroke-width="3" stroke-miterlimit="10" stroke-linecap="round" stroke-linejoin="round"/>
<path d="M14.0712 58.2422V54.2092" stroke="#FD663C" stroke-width="3" stroke-miterlimit="10" stroke-linecap="round" stroke-linejoin="round"/>
<path d="M30.8232 58.2422V54.2092" stroke="#FD663C" stroke-width="3" stroke-miterlimit="10" stroke-linecap="round" stroke-linejoin="round"/>
<path d="M47.922 58.2422V54.2092" stroke="#FD663C" stroke-width="3" stroke-miterlimit="10" stroke-linecap="round" stroke-linejoin="round"/>
<circle cx="27.2963" cy="42.6713" r="1.75781" fill="#FD663C"/>
<circle cx="34.1763" cy="42.6713" r="1.75781" fill="#FD663C"/>
<circle cx="27.2963" cy="48.6713" r="1.75781" fill="#FD663C"/>
<circle cx="34.1763" cy="48.6713" r="1.75781" fill="#FD663C"/>
<path d="M58.2422 48.0975H40.973" stroke="#FD663C" stroke-width="3" stroke-miterlimit="10" stroke-linecap="round" stroke-linejoin="round"/>
</g>
<defs>
<clipPath id="clip0_120_17411">
<rect width="60" height="60" fill="white"/>
</clipPath>
</defs>
</svg>
