<svg width="60" height="60" viewBox="0 0 60 60" fill="none" xmlns="http://www.w3.org/2000/svg">
<g clip-path="url(#clip0_120_17453)">
<path d="M52.1583 15.5237C56.4177 15.5237 59.8831 12.0585 59.8831 7.79895C59.8831 3.53942 56.4178 0.0741577 52.1583 0.0741577C47.8989 0.0741577 44.4335 3.53954 44.4335 7.79895C44.4335 12.0584 47.8989 15.5237 52.1583 15.5237ZM52.1583 3.58281C54.4831 3.58281 56.3743 5.47416 56.3743 7.79895C56.3743 10.1236 54.4831 12.015 52.1583 12.015C49.8336 12.015 47.9422 10.1237 47.9422 7.79895C47.9422 5.47416 49.8336 3.58281 52.1583 3.58281Z" fill="#FD663C"/>
<path d="M58.2456 56.4172H56.9922V40.7594C57.3214 41.0399 57.7251 41.179 58.1281 41.179C58.6124 41.179 59.0945 40.9796 59.4412 40.5889C60.0842 39.8641 60.0178 38.7552 59.293 38.1123L54.1501 33.55V24.4578C54.1501 23.4889 53.3646 22.7034 52.3957 22.7034C51.4268 22.7034 50.6413 23.4889 50.6413 24.4578V30.4374L41.4415 22.2763V13.1962C41.4415 5.97027 35.5628 0.0915527 28.3368 0.0915527C21.1109 0.0915527 15.2322 5.97027 15.2322 13.1962V17.0069C13.3117 13.4261 11.4599 10.896 11.2996 10.679C10.9689 10.2313 10.4453 9.96723 9.88865 9.96723C9.33205 9.96723 8.80842 10.2314 8.47766 10.679C8.13614 11.1414 0.113099 22.107 0.113099 31.3642C0.113099 35.8824 1.01415 40.1579 2.65029 43.4028C4.09357 46.2652 5.9993 48.1116 8.13427 48.763V56.4171H1.75439C0.785497 56.4171 0 57.2025 0 58.1714C0 59.1403 0.785497 59.9258 1.75439 59.9258H58.2456C59.2145 59.9258 60 59.1403 60 58.1714C60 57.2027 59.2145 56.4172 58.2456 56.4172ZM30.1705 56.4172H26.6618V43.3849H30.1705V56.4172ZM31.9249 39.8761H24.9074C23.9385 39.8761 23.153 40.6616 23.153 41.6305V56.4172H19.6442V37.6491L36.5637 22.6399L53.4834 37.6491V56.4172H33.6793V41.6305C33.6793 40.6616 32.8939 39.8761 31.9249 39.8761ZM18.7408 13.1962C18.7408 7.905 23.0455 3.60032 28.3367 3.60032C33.628 3.60032 37.9326 7.905 37.9326 13.1962V19.1637L37.7281 18.9822C37.0637 18.393 36.0639 18.393 35.3996 18.9822L30.0028 23.7697V14.4422C30.0028 13.4733 29.2173 12.6878 28.2484 12.6878C27.2795 12.6878 26.494 13.4733 26.494 14.4422V19.7894L25.3249 18.6086C24.6432 17.9201 23.5325 17.9146 22.8439 18.5963C22.1553 19.2781 22.1498 20.3889 22.8316 21.0774L26.494 24.7766V26.8824L20.932 31.8163C20.4026 31.1388 19.8966 30.3822 19.5839 29.7243C19.4491 28.2905 19.1497 26.8339 18.7408 25.397V13.1962ZM5.78304 41.8231C4.38924 39.0588 3.62152 35.3444 3.62152 31.3643C3.62152 25.454 7.67205 18.3163 9.88924 14.8523C11.4646 17.3107 13.9622 21.6204 15.2778 26.0334C15.2938 26.1035 15.3146 26.1717 15.3388 26.2383C15.8402 27.9705 16.1552 29.7142 16.1552 31.3644C16.1552 33.1307 16.0033 34.8441 15.7133 36.4459L13.8347 38.1124C13.1099 38.7553 13.0435 39.8642 13.6865 40.589C13.8752 40.8016 14.1046 40.956 14.352 41.054C14.2372 41.3169 14.1189 41.5752 13.9938 41.8232C12.8098 44.1714 11.3135 45.5181 9.88842 45.5181C8.46339 45.5181 6.96702 44.1713 5.78304 41.8231ZM11.6428 48.7631C13.3195 48.2514 14.8545 47.0021 16.1354 45.1027V56.4171H11.6428V48.7631Z" fill="#FD663C"/>
<path d="M39.1927 51.8631H47.6709C48.6398 51.8631 49.4253 51.0776 49.4253 50.1087V41.6305C49.4253 40.6617 48.6398 39.8762 47.6709 39.8762H39.1927C38.2239 39.8762 37.4384 40.6617 37.4384 41.6305V50.1087C37.4384 51.0776 38.2239 51.8631 39.1927 51.8631ZM40.9471 43.3849H45.9165V48.3543H40.9471V43.3849Z" fill="#FD663C"/>
</g>
<defs>
<clipPath id="clip0_120_17453">
<rect width="60" height="60" fill="white"/>
</clipPath>
</defs>
</svg>
